<svg width="81" height="10" viewBox="0 0 81 10" fill="none" xmlns="http://www.w3.org/2000/svg">
<path d="M0.756 10V0.279999H1.68L4.44 6.736V0.279999H5.568V10H4.704L1.908 3.364V10H0.756ZM6.56784 10L8.63184 0.279999H9.93984L12.0158 10H10.7318L10.2878 7.552H8.30784L7.83984 10H6.56784ZM8.48784 6.58H10.1078L9.29184 2.2L8.48784 6.58ZM13.6834 10V1.288H12.0394V0.279999H16.6354V1.288H15.0394V10H13.6834ZM17.5724 10V0.279999H18.9284V4.48H21.4244V0.279999H22.7804V10H21.4244V5.452H18.9284V10H17.5724ZM23.771 10L25.835 0.279999H27.143L29.219 10H27.935L27.491 7.552H25.511L25.043 10H23.771ZM25.691 6.58H27.311L26.495 2.2L25.691 6.58ZM30.2052 10V0.279999H31.1292L33.8892 6.736V0.279999H35.0172V10H34.1532L31.3572 3.364V10H30.2052ZM39.2873 10V0.279999H41.6992C42.2833 0.279999 42.7473 0.387999 43.0913 0.603999C43.4433 0.812 43.6993 1.116 43.8593 1.516C44.0193 1.916 44.0993 2.4 44.0993 2.968C44.0993 3.48 44.0073 3.924 43.8233 4.3C43.6473 4.676 43.3833 4.968 43.0313 5.176C42.6793 5.376 42.2393 5.476 41.7113 5.476H40.6433V10H39.2873ZM40.6433 4.504H41.2673C41.6593 4.504 41.9673 4.46 42.1913 4.372C42.4153 4.284 42.5753 4.132 42.6713 3.916C42.7673 3.692 42.8153 3.38 42.8153 2.98C42.8153 2.516 42.7793 2.16 42.7073 1.912C42.6433 1.664 42.5033 1.492 42.2873 1.396C42.0713 1.3 41.7353 1.252 41.2793 1.252H40.6433V4.504ZM45.1249 10V0.279999H46.4569V10H45.1249ZM48.0054 10L48.1854 0.279999H49.5174L51.2334 8.164L52.9614 0.279999H54.2814L54.4614 10H53.3694L53.2614 2.944L51.6174 10H50.8494L49.2174 2.944L49.1094 10H48.0054ZM55.9513 10V0.279999H59.7193V1.288H57.3073V4.504H59.2633V5.464H57.3073V9.028H59.7433V10H55.9513ZM60.838 10V0.279999H61.762L64.522 6.736V0.279999H65.65V10H64.786L61.99 3.364V10H60.838ZM68.2459 10V1.288H66.6019V0.279999H71.1979V1.288H69.6019V10H68.2459ZM72.1349 10V0.279999H75.9029V1.288H73.4909V4.504H75.4469V5.464H73.4909V9.028H75.9269V10H72.1349ZM77.0216 10V0.279999H78.3776V9.028H80.8616V10H77.0216Z" fill="white"/>
</svg>
